<svg xmlns="http://www.w3.org/2000/svg" width="131" height="32" fill="none"><g clip-path="url(#a)"><path fill="#fff" d="M43.86 12.001a6.828 6.828 0 0 1 2.73 2.678 7.909 7.909 0 0 1 .99 3.978 7.995 7.995 0 0 1-.99 3.995 6.852 6.852 0 0 1-2.73 2.686c-1.211.644-2.57.97-3.946.947a7.42 7.42 0 0 1-2.848-.527 5.285 5.285 0 0 1-2.162-1.492v2.026h-3.366V5.537h3.535v7.495a5.96 5.96 0 0 1 2.136-1.474 7.21 7.21 0 0 1 2.709-.502 8.203 8.203 0 0 1 3.945.945h-.004Zm-1.14 10.127a5.133 5.133 0 0 0 1.265-3.369c0-1.235-.449-2.43-1.265-3.368a4.283 4.283 0 0 0-1.47-.978 4.345 4.345 0 0 0-1.746-.307 4.615 4.615 0 0 0-2.292.569 4.241 4.241 0 0 0-1.617 1.63A4.934 4.934 0 0 0 35 18.751a4.846 4.846 0 0 0 .595 2.446 4.13 4.13 0 0 0 1.617 1.63c.698.388 1.49.585 2.291.57a4.298 4.298 0 0 0 1.747-.297 4.24 4.24 0 0 0 1.47-.972M54.061 25.312a7.078 7.078 0 0 1-2.872-2.719 7.563 7.563 0 0 1-1.042-3.937 7.455 7.455 0 0 1 1.041-3.93 7.136 7.136 0 0 1 2.873-2.693 8.67 8.67 0 0 1 4.129-.98 8.827 8.827 0 0 1 4.166.972 7.187 7.187 0 0 1 2.873 2.694 7.979 7.979 0 0 1 1.039 3.933c0 1.377-.358 2.73-1.04 3.934a7.25 7.25 0 0 1-2.872 2.718 8.83 8.83 0 0 1-4.165.972 8.569 8.569 0 0 1-4.129-.964Zm7.356-3.287a5.108 5.108 0 0 0 1.273-3.368 5.108 5.108 0 0 0-1.273-3.369 4.336 4.336 0 0 0-1.477-.976 4.395 4.395 0 0 0-1.752-.31 4.312 4.312 0 0 0-1.748.306 4.254 4.254 0 0 0-1.469.98 5.133 5.133 0 0 0-1.264 3.369c0 1.235.448 2.43 1.264 3.369a4.675 4.675 0 0 0 3.225 1.284c1.204 0 2.36-.46 3.225-1.284M78.228 11.054v3.311a4.458 4.458 0 0 0-.82-.09 4.71 4.71 0 0 0-1.809.356 4.646 4.646 0 0 0-1.525 1.02 4.69 4.69 0 0 0-1.164 3.41v7.214h-3.536V11.116h3.368v2.459a6.21 6.21 0 0 1 2.411-1.96 6.324 6.324 0 0 1 3.075-.561ZM96.9 5.527v20.755h-3.401V24.17a5.568 5.568 0 0 1-2.161 1.59 7.42 7.42 0 0 1-2.849.527 8.13 8.13 0 0 1-3.92-.947 6.849 6.849 0 0 1-2.73-2.686 7.995 7.995 0 0 1-.989-3.994 7.91 7.91 0 0 1 .989-3.979 6.88 6.88 0 0 1 2.73-2.678 8.056 8.056 0 0 1 3.92-.947 7.163 7.163 0 0 1 2.74.502c.818.33 1.547.844 2.128 1.5v-7.53H96.9ZM91.213 22.74a4.184 4.184 0 0 0 1.617-1.63 4.933 4.933 0 0 0 .596-2.446 4.843 4.843 0 0 0-.596-2.446 4.13 4.13 0 0 0-1.617-1.63 4.912 4.912 0 0 0-4.59 0 4.24 4.24 0 0 0-1.618 1.63 4.93 4.93 0 0 0-.596 2.446c-.02.852.185 1.695.596 2.446a4.128 4.128 0 0 0 1.617 1.63c.698.389 1.49.585 2.292.57a4.705 4.705 0 0 0 2.291-.57M101.247 9.102a2.02 2.02 0 0 1 0-2.982 2.298 2.298 0 0 1 1.617-.593 2.386 2.386 0 0 1 1.617.568 1.86 1.86 0 0 1 .645 1.434 2.082 2.082 0 0 1-.636 1.536 2.255 2.255 0 0 1-1.625.626 2.221 2.221 0 0 1-1.617-.593l-.001.004Zm-.175 1.924h3.535v15.257h-3.536l.001-15.257ZM111.943 25.311a7.085 7.085 0 0 1-2.874-2.718 7.57 7.57 0 0 1-1.043-3.937 7.46 7.46 0 0 1 1.043-3.93 7.141 7.141 0 0 1 2.874-2.693 9.32 9.32 0 0 1 8.293 0 7.182 7.182 0 0 1 2.872 2.694 7.97 7.97 0 0 1 0 7.867 7.246 7.246 0 0 1-2.872 2.718 8.827 8.827 0 0 1-4.167.972 8.711 8.711 0 0 1-4.129-.972h.003Zm7.359-3.286a5.104 5.104 0 0 0 1.273-3.368 5.104 5.104 0 0 0-1.273-3.369 4.328 4.328 0 0 0-1.477-.975 4.397 4.397 0 0 0-1.752-.31 4.317 4.317 0 0 0-1.748.305 4.267 4.267 0 0 0-1.469.98 5.134 5.134 0 0 0-1.264 3.369c0 1.235.448 2.43 1.264 3.368a4.675 4.675 0 0 0 3.225 1.285c1.204 0 2.361-.46 3.225-1.285M127.02 25.624a2.312 2.312 0 0 1-.72-1.64 2.292 2.292 0 0 1 .675-1.657c.218-.22.478-.394.765-.513a2.4 2.4 0 0 1 2.588.49c.437.434.683 1.02.685 1.63a2.305 2.305 0 0 1-.676 1.632 2.383 2.383 0 0 1-1.646.697 2.387 2.387 0 0 1-1.671-.64Z"/><path fill="#0062AA" d="M3.293 0A8.174 8.174 0 0 0 1.82 3.35a8.11 8.11 0 0 0 .142 3.647 8.198 8.198 0 0 0 1.73 3.23 8.374 8.374 0 0 0 2.977 2.178l13.604 6.465a8.174 8.174 0 0 0 1.473-3.35 8.11 8.11 0 0 0-.142-3.647 8.198 8.198 0 0 0-1.73-3.23 8.374 8.374 0 0 0-2.978-2.178L3.293 0Z"/><path fill="#0094FF" d="m14.918 9.324-3.635 5.272L0 30.944a12.094 12.094 0 0 0 7.997.64 11.91 11.91 0 0 0 6.595-4.493l5.68-8.229a8.175 8.175 0 0 0 1.472-3.35 8.111 8.111 0 0 0-.142-3.646 8.199 8.199 0 0 0-1.729-3.23 8.374 8.374 0 0 0-2.977-2.178l-3.167-1.5c.402.176.76.438 1.046.767a2.86 2.86 0 0 1 .143 3.598"/></g><defs><clipPath id="a"><path fill="#fff" d="M0 0h131v32H0z"/></clipPath></defs></svg>